<svg id="Calque_1" data-name="Calque 1" xmlns="http://www.w3.org/2000/svg" viewBox="0 0 482.07 165.82"><defs><style>.cls-1{fill:#1d1de5;}.cls-1,.cls-2{opacity:0.9;}.cls-2{fill:#e62121;}.cls-3{font-size:150px;fill:#4a4647;font-family:SofiaProLight, Sofia Pro;letter-spacing:0.05em;}.cls-4{letter-spacing:0.02em;}.cls-5{letter-spacing:0.05em;}</style></defs><title>logo-wilko</title><path class="cls-1" d="M15.2,15.2a21.5,21.5,0,0,1,30.41,0L92.28,61.87A21.5,21.5,0,0,1,61.87,92.28L15.2,45.61a21.5,21.5,0,0,1,0-30.41Z" transform="translate(-8.91 9.37)"/><path class="cls-2" d="M15.2,139.28a21.5,21.5,0,0,1,0-30.41L61.87,62.2A21.5,21.5,0,0,1,92.28,92.61L45.61,139.28a21.5,21.5,0,0,1-30.41,0Z" transform="translate(-8.91 9.37)"/><text class="cls-3" transform="translate(106.63 126.67)">wil<tspan class="cls-4" x="208.05" y="0">k</tspan><tspan class="cls-5" x="280.35" y="0">o</tspan></text></svg>